<svg width="27" height="29" viewBox="0 0 27 29" fill="none" xmlns="http://www.w3.org/2000/svg">
<path d="M3.27023 28.4963C2.56985 28.4963 1.97028 28.247 1.47152 27.7482C0.972767 27.2494 0.723389 26.6499 0.723389 25.9495C0.723389 25.2491 0.972767 24.6495 1.47152 24.1508C1.97028 23.652 2.56985 23.4026 3.27023 23.4026H23.645C24.3454 23.4026 24.9449 23.652 25.4437 24.1508C25.9424 24.6495 26.1918 25.2491 26.1918 25.9495C26.1918 26.6499 25.9424 27.2494 25.4437 27.7482C24.9449 28.247 24.3454 28.4963 23.645 28.4963H3.27023ZM4.54365 20.8558C4.18285 20.8558 3.88041 20.7338 3.63634 20.4897C3.39227 20.2456 3.27023 19.9432 3.27023 19.5824V16.6217C3.27023 16.4519 3.30207 16.2874 3.36574 16.1282C3.42941 15.969 3.52492 15.8258 3.65226 15.6984L14.7947 4.55601L19.57 9.33134L8.42759 20.4738C8.30025 20.6011 8.15699 20.6966 7.99781 20.7603C7.83863 20.824 7.67415 20.8558 7.50436 20.8558H4.54365ZM5.81708 18.309H6.96316L16.0044 9.33134L14.7947 8.12159L5.81708 17.1629V18.309ZM21.0026 7.93057L16.2273 3.15524L18.5195 0.863083C18.7529 0.608399 19.0501 0.486363 19.4109 0.496975C19.7717 0.507586 20.0688 0.629623 20.3022 0.863083L23.2948 3.85562C23.5282 4.08909 23.645 4.38091 23.645 4.7311C23.645 5.08129 23.5282 5.38373 23.2948 5.63842L21.0026 7.93057Z" fill="white"/>
</svg>
