<svg width="26" height="29" viewBox="0 0 26 29" fill="none" xmlns="http://www.w3.org/2000/svg">
<path d="M5.06157 28.4963C4.18742 28.4963 3.43909 28.1917 2.81658 27.5825C2.19408 26.9732 1.88283 26.2408 1.88283 25.3852V5.163C1.43251 5.163 1.05503 5.01393 0.750401 4.71578C0.445772 4.41763 0.293457 4.04819 0.293457 3.60745C0.293457 3.16671 0.445772 2.79726 0.750401 2.49912C1.05503 2.20097 1.43251 2.05189 1.88283 2.05189H8.24032C8.24032 1.61115 8.39263 1.24171 8.69726 0.94356C9.00189 0.645412 9.37937 0.496338 9.82969 0.496338H16.1872C16.6375 0.496338 17.015 0.645412 17.3196 0.94356C17.6242 1.24171 17.7765 1.61115 17.7765 2.05189H24.134C24.5844 2.05189 24.9618 2.20097 25.2665 2.49912C25.5711 2.79726 25.7234 3.16671 25.7234 3.60745C25.7234 4.04819 25.5711 4.41763 25.2665 4.71578C24.9618 5.01393 24.5844 5.163 24.134 5.163V25.3852C24.134 26.2408 23.8228 26.9732 23.2003 27.5825C22.5778 28.1917 21.8294 28.4963 20.9553 28.4963H5.06157ZM20.9553 5.163H5.06157V25.3852H20.9553V5.163ZM13.0084 17.4519L16.0282 20.4074C16.3196 20.6926 16.6905 20.8352 17.1408 20.8352C17.5911 20.8352 17.962 20.6926 18.2534 20.4074C18.5447 20.1223 18.6904 19.7593 18.6904 19.3186C18.6904 18.8778 18.5447 18.5149 18.2534 18.2297L15.2336 15.2741L18.2534 12.3186C18.5447 12.0334 18.6904 11.6704 18.6904 11.2297C18.6904 10.7889 18.5447 10.426 18.2534 10.1408C17.962 9.8556 17.5911 9.71301 17.1408 9.71301C16.6905 9.71301 16.3196 9.8556 16.0282 10.1408L13.0084 13.0963L9.98863 10.1408C9.69724 9.8556 9.32639 9.71301 8.87607 9.71301C8.42574 9.71301 8.05489 9.8556 7.7635 10.1408C7.47212 10.426 7.32643 10.7889 7.32643 11.2297C7.32643 11.6704 7.47212 12.0334 7.7635 12.3186L10.7833 15.2741L7.7635 18.2297C7.47212 18.5149 7.32643 18.8778 7.32643 19.3186C7.32643 19.7593 7.47212 20.1223 7.7635 20.4074C8.05489 20.6926 8.42574 20.8352 8.87607 20.8352C9.32639 20.8352 9.69724 20.6926 9.98863 20.4074L13.0084 17.4519Z" fill="white"/>
</svg>
